<?xml version="1.0" standalone="no"?>
<!DOCTYPE svg PUBLIC "-//W3C//DTD SVG 20010904//EN"
 "http://www.w3.org/TR/2001/REC-SVG-20010904/DTD/svg10.dtd">
<svg version="1.0" xmlns="http://www.w3.org/2000/svg"
 width="308.000000pt" height="308.000000pt" viewBox="0 0 308.000000 308.000000"
 preserveAspectRatio="xMidYMid meet">
<metadata>
Created by potrace 1.14, written by Peter Selinger 2001-2017
</metadata>
<g transform="translate(0.000000,308.000000) scale(0.100000,-0.100000)"
fill="#000000" stroke="none">
<path d="M2148 3069 c-163 -19 -290 -81 -409 -200 -61 -61 -86 -95 -123 -170
-69 -141 -81 -197 -81 -374 1 -174 14 -234 78 -365 59 -121 178 -241 297 -298
191 -93 390 -105 585 -35 205 75 370 258 432 483 13 49 18 102 18 215 0 176
-13 234 -79 370 -132 266 -406 409 -718 374z m257 -130 c171 -52 306 -206 362
-409 22 -82 25 -308 4 -390 -66 -267 -272 -443 -521 -444 -104 0 -175 16 -261
60 -119 63 -215 184 -266 339 -23 71 -26 97 -27 225 -1 165 12 229 69 345 119
243 380 355 640 274z"/>
<path d="M1130 3056 c0 -2 12 -30 28 -62 l27 -59 3 -267 3 -268 -435 0 -436 0
0 183 c0 235 13 358 44 420 l23 47 -135 0 c-124 0 -134 -1 -127 -17 4 -10 17
-40 29 -68 20 -48 21 -67 24 -580 4 -570 -1 -654 -42 -736 l-25 -49 140 0 c77
0 139 3 137 8 -57 111 -70 208 -66 487 l3 190 433 3 432 2 0 -258 c0 -265 -9
-343 -46 -399 -7 -12 -14 -25 -14 -28 0 -3 63 -5 139 -5 l140 0 -24 53 c-14
29 -29 84 -35 122 -5 40 -10 282 -10 555 0 273 5 515 10 555 6 38 21 93 35
122 l24 53 -140 0 c-76 0 -139 -2 -139 -4z"/>
<path d="M1692 1474 c-108 -55 -64 -224 58 -224 11 0 20 -3 20 -7 0 -5 -36
-73 -80 -153 l-79 -145 30 -3 c17 -2 37 -1 44 2 18 6 171 302 186 358 33 120
-76 224 -179 172z"/>
<path d="M155 1412 c40 -81 45 -148 45 -682 0 -566 -3 -603 -58 -713 -2 -5
146 -7 329 -5 306 4 341 6 413 26 259 72 434 244 502 492 25 89 25 309 1 400
-61 230 -223 403 -450 478 -129 43 -222 52 -534 52 l-272 0 24 -48z m630 -77
c104 -22 226 -86 295 -155 65 -65 120 -166 147 -270 26 -101 21 -283 -9 -387
-58 -195 -191 -323 -398 -383 -62 -18 -110 -23 -272 -27 l-198 -6 0 628 0 628
183 -6 c100 -4 214 -14 252 -22z"/>
<path d="M2145 1393 c-15 -38 -121 -309 -237 -603 -227 -578 -271 -680 -318
-741 l-32 -39 127 0 c117 0 127 1 120 18 -28 67 -11 170 54 339 l38 98 321 3
321 2 21 -47 c12 -27 38 -95 57 -153 31 -93 35 -113 31 -182 l-5 -78 139 0
139 0 -25 33 c-48 63 -149 303 -593 1405 -3 8 -27 12 -68 12 l-63 0 -27 -67z
m218 -475 l135 -338 -280 0 c-153 0 -277 3 -275 8 4 5 224 564 263 665 4 10
10 15 15 10 4 -4 68 -160 142 -345z"/>
</g>
</svg>
